<svg width="74" height="38" viewBox="0 0 74 38" fill="none" xmlns="http://www.w3.org/2000/svg">
<path d="M11.7205 13.8949C5.24745 13.8949 0 19.6062 0 26.6515H23.441C23.441 19.6062 18.1935 13.8949 11.7205 13.8949Z" fill="white"/>
<path d="M57.6832 20.2733C48.6717 20.2733 41.3665 28.1812 41.3665 37.9362H74C74 28.1812 66.6947 20.2733 57.6832 20.2733Z" fill="white"/>
<path d="M33.0933 11.4418C19.3857 11.4418 8.27344 23.3037 8.27344 37.9362H57.9132C57.9132 23.3037 46.8009 11.4418 33.0933 11.4418Z" fill="white"/>
<path d="M64.1121 0.572235C58.6511 0.572235 54.2241 5.43869 54.2241 11.4418H74C74 5.43869 69.573 0.572235 64.1121 0.572235Z" fill="white"/>
</svg>
